<?xml version="1.0" encoding="UTF-8" standalone="no"?>
<svg
   xmlns:ns1="http://www.iki.fi/pav/software/textext/"
   xmlns:dc="http://purl.org/dc/elements/1.1/"
   xmlns:cc="http://creativecommons.org/ns#"
   xmlns:rdf="http://www.w3.org/1999/02/22-rdf-syntax-ns#"
   xmlns:svg="http://www.w3.org/2000/svg"
   xmlns="http://www.w3.org/2000/svg"
   xmlns:xlink="http://www.w3.org/1999/xlink"
   xmlns:sodipodi="http://sodipodi.sourceforge.net/DTD/sodipodi-0.dtd"
   xmlns:inkscape="http://www.inkscape.org/namespaces/inkscape"
   version="1.1"
   x="0px"
   y="0px"
   viewBox="0 0 2809.7644 2379.55"
   enable-background="new 0 0 1000 1000"
   xml:space="preserve"
   id="svg14"
   sodipodi:docname="riser.svg"
   inkscape:version="1.0 (4035a4fb49, 2020-05-01)"
   width="2809.7644"
   height="2379.55"><defs
   id="defs18"><marker
   inkscape:stockid="Arrow1Mstart"
   orient="auto"
   refY="0.0"
   refX="0.0"
   id="Arrow1Mstart"
   style="overflow:visible"
   inkscape:isstock="true"><path
     id="path1368"
     d="M 0.0,0.0 L 5.0,-5.0 L -12.5,0.0 L 5.0,5.0 L 0.0,0.0 z "
     style="fill-rule:evenodd;stroke:#000000;stroke-width:1pt;stroke-opacity:1;fill:#000000;fill-opacity:1"
     transform="scale(0.4) translate(10,0)" /></marker><marker
   inkscape:stockid="Arrow1Mend"
   orient="auto"
   refY="0.0"
   refX="0.0"
   id="Arrow1Mend"
   style="overflow:visible;"
   inkscape:isstock="true"><path
     id="path1371"
     d="M 0.0,0.0 L 5.0,-5.0 L -12.5,0.0 L 5.0,5.0 L 0.0,0.0 z "
     style="fill-rule:evenodd;stroke:#000000;stroke-width:1pt;stroke-opacity:1;fill:#000000;fill-opacity:1"
     transform="scale(0.4) rotate(180) translate(10,0)" /></marker><marker
   inkscape:stockid="Arrow2Lend"
   orient="auto"
   refY="0"
   refX="0"
   id="marker1391"
   style="overflow:visible"
   inkscape:isstock="true"><path
     inkscape:connector-curvature="0"
     id="path1389"
     style="fill:#006bff;fill-opacity:1;fill-rule:evenodd;stroke:#006bff;stroke-width:0.625;stroke-linejoin:round;stroke-opacity:1"
     d="M 8.7185878,4.0337352 -2.2072895,0.01601326 8.7185884,-4.0017078 c -1.7454984,2.3720609 -1.7354408,5.6174519 -6e-7,8.035443 z"
     transform="matrix(-1.1,0,0,-1.1,-1.1,0)" /></marker><marker
   inkscape:stockid="Arrow2Lend"
   orient="auto"
   refY="0"
   refX="0"
   id="marker1351"
   style="overflow:visible"
   inkscape:isstock="true"><path
     inkscape:connector-curvature="0"
     id="path1349"
     style="fill:#006bff;fill-opacity:1;fill-rule:evenodd;stroke:#006bff;stroke-width:0.625;stroke-linejoin:round;stroke-opacity:1"
     d="M 8.7185878,4.0337352 -2.2072895,0.01601326 8.7185884,-4.0017078 c -1.7454984,2.3720609 -1.7354408,5.6174519 -6e-7,8.035443 z"
     transform="matrix(-1.1,0,0,-1.1,-1.1,0)" /></marker><marker
   inkscape:collect="always"
   inkscape:isstock="true"
   style="overflow:visible"
   id="marker1317"
   refX="0"
   refY="0"
   orient="auto"
   inkscape:stockid="Arrow2Lend"><path
     inkscape:connector-curvature="0"
     transform="matrix(-1.1,0,0,-1.1,-1.1,0)"
     d="M 8.7185878,4.0337352 -2.2072895,0.01601326 8.7185884,-4.0017078 c -1.7454984,2.3720609 -1.7354408,5.6174519 -6e-7,8.035443 z"
     style="fill:#006bff;fill-opacity:1;fill-rule:evenodd;stroke:#006bff;stroke-width:0.625;stroke-linejoin:round;stroke-opacity:1"
     id="path1315" /></marker><marker
   inkscape:collect="always"
   inkscape:isstock="true"
   style="overflow:visible"
   id="Arrow2Lend"
   refX="0"
   refY="0"
   orient="auto"
   inkscape:stockid="Arrow2Lend"><path
     inkscape:connector-curvature="0"
     transform="matrix(-1.1,0,0,-1.1,-1.1,0)"
     d="M 8.7185878,4.0337352 -2.2072895,0.01601326 8.7185884,-4.0017078 c -1.7454984,2.3720609 -1.7354408,5.6174519 -6e-7,8.035443 z"
     style="fill:#006bff;fill-opacity:1;fill-rule:evenodd;stroke:#006bff;stroke-width:0.625;stroke-linejoin:round;stroke-opacity:1"
     id="path1054" /></marker><g
   id="g3139">
      <symbol
   overflow="visible"
   id="symbol9209">
        <path
   style="stroke:none;"
   d=""
   id="path1603" />
      </symbol>
      <symbol
   overflow="visible"
   id="symbol4143">
        <path
   style="stroke:none;"
   d="M 3.734375 -6.03125 C 3.8125 -6.390625 3.84375 -6.5 4.78125 -6.5 C 5.078125 -6.5 5.15625 -6.5 5.15625 -6.6875 C 5.15625 -6.8125 5.046875 -6.8125 5 -6.8125 C 4.671875 -6.8125 3.859375 -6.78125 3.53125 -6.78125 C 3.234375 -6.78125 2.5 -6.8125 2.203125 -6.8125 C 2.140625 -6.8125 2.015625 -6.8125 2.015625 -6.609375 C 2.015625 -6.5 2.109375 -6.5 2.296875 -6.5 C 2.3125 -6.5 2.5 -6.5 2.671875 -6.484375 C 2.84375 -6.453125 2.9375 -6.453125 2.9375 -6.3125 C 2.9375 -6.28125 2.9375 -6.25 2.90625 -6.125 L 1.5625 -0.78125 C 1.46875 -0.390625 1.453125 -0.3125 0.65625 -0.3125 C 0.484375 -0.3125 0.390625 -0.3125 0.390625 -0.109375 C 0.390625 0 0.484375 0 0.65625 0 L 5.28125 0 C 5.515625 0 5.515625 0 5.578125 -0.171875 L 6.375 -2.328125 C 6.40625 -2.4375 6.40625 -2.453125 6.40625 -2.46875 C 6.40625 -2.5 6.375 -2.578125 6.296875 -2.578125 C 6.203125 -2.578125 6.1875 -2.515625 6.125 -2.359375 C 5.78125 -1.453125 5.34375 -0.3125 3.625 -0.3125 L 2.6875 -0.3125 C 2.546875 -0.3125 2.515625 -0.3125 2.46875 -0.3125 C 2.359375 -0.328125 2.328125 -0.34375 2.328125 -0.421875 C 2.328125 -0.453125 2.328125 -0.46875 2.375 -0.640625 Z M 3.734375 -6.03125 "
   id="path3715" />
      </symbol>
      <symbol
   overflow="visible"
   id="symbol8348">
        <path
   style="stroke:none;"
   d=""
   id="path3879" />
      </symbol>
      <symbol
   overflow="visible"
   id="symbol6475">
        <path
   style="stroke:none;"
   d="M 1.171875 -0.609375 C 1.359375 -0.796875 1.484375 -0.921875 2.0625 -1.40625 C 2.21875 -1.515625 2.734375 -1.9375 2.9375 -2.125 C 3.359375 -2.546875 3.625 -2.90625 3.625 -2.984375 C 3.625 -3.078125 3.546875 -3.078125 3.515625 -3.078125 C 3.453125 -3.078125 3.421875 -3.0625 3.390625 -3 C 3.171875 -2.6875 3.03125 -2.578125 2.859375 -2.578125 C 2.78125 -2.578125 2.671875 -2.578125 2.46875 -2.78125 C 2.234375 -3.03125 2.078125 -3.078125 1.921875 -3.078125 C 1.359375 -3.078125 0.984375 -2.46875 0.984375 -2.265625 C 0.984375 -2.1875 1.046875 -2.171875 1.09375 -2.171875 C 1.1875 -2.171875 1.203125 -2.1875 1.21875 -2.265625 C 1.328125 -2.515625 1.71875 -2.53125 1.828125 -2.53125 C 2 -2.53125 2.171875 -2.484375 2.265625 -2.46875 C 2.65625 -2.390625 2.703125 -2.390625 2.875 -2.390625 C 2.703125 -2.1875 2.578125 -2.0625 1.90625 -1.546875 C 1.359375 -1.109375 1.171875 -0.9375 1.046875 -0.796875 C 0.625 -0.390625 0.421875 -0.078125 0.421875 -0.015625 C 0.421875 0.0625 0.515625 0.0625 0.546875 0.0625 C 0.609375 0.0625 0.625 0.0625 0.65625 0 C 0.84375 -0.265625 1.0625 -0.421875 1.296875 -0.421875 C 1.390625 -0.421875 1.484375 -0.421875 1.671875 -0.25 C 1.890625 -0.03125 2.03125 0.0625 2.265625 0.0625 C 3 0.0625 3.46875 -0.78125 3.46875 -1.015625 C 3.46875 -1.09375 3.390625 -1.09375 3.359375 -1.09375 C 3.265625 -1.09375 3.25 -1.0625 3.21875 -0.984375 C 3.09375 -0.640625 2.6875 -0.46875 2.34375 -0.46875 C 2.1875 -0.46875 2 -0.515625 1.828125 -0.546875 C 1.515625 -0.625 1.453125 -0.625 1.328125 -0.625 C 1.3125 -0.625 1.21875 -0.625 1.171875 -0.609375 Z M 1.171875 -0.609375 "
   id="path6090" />
      </symbol>
    </g>
  <g
   id="g5202">
      <symbol
   overflow="visible"
   id="symbol3680">
        <path
   style="stroke:none;"
   d=""
   id="path6853" />
      </symbol>
      <symbol
   overflow="visible"
   id="symbol2192">
        <path
   style="stroke:none;"
   d="M 2.9375 -6.375 C 2.9375 -6.625 2.9375 -6.640625 2.703125 -6.640625 C 2.078125 -6 1.203125 -6 0.890625 -6 L 0.890625 -5.6875 C 1.09375 -5.6875 1.671875 -5.6875 2.1875 -5.953125 L 2.1875 -0.78125 C 2.1875 -0.421875 2.15625 -0.3125 1.265625 -0.3125 L 0.953125 -0.3125 L 0.953125 0 C 1.296875 -0.03125 2.15625 -0.03125 2.5625 -0.03125 C 2.953125 -0.03125 3.828125 -0.03125 4.171875 0 L 4.171875 -0.3125 L 3.859375 -0.3125 C 2.953125 -0.3125 2.9375 -0.421875 2.9375 -0.78125 Z M 2.9375 -6.375 "
   id="path6985" />
      </symbol>
      <symbol
   overflow="visible"
   id="symbol2407">
        <path
   style="stroke:none;"
   d="M 3.65625 -3.171875 L 3.65625 -2.84375 C 3.65625 -0.515625 2.625 -0.0625 2.046875 -0.0625 C 1.875 -0.0625 1.328125 -0.078125 1.0625 -0.421875 C 1.5 -0.421875 1.578125 -0.703125 1.578125 -0.875 C 1.578125 -1.1875 1.34375 -1.328125 1.125 -1.328125 C 0.96875 -1.328125 0.671875 -1.25 0.671875 -0.859375 C 0.671875 -0.1875 1.203125 0.21875 2.046875 0.21875 C 3.34375 0.21875 4.5625 -1.140625 4.5625 -3.28125 C 4.5625 -5.96875 3.40625 -6.640625 2.515625 -6.640625 C 1.96875 -6.640625 1.484375 -6.453125 1.0625 -6.015625 C 0.640625 -5.5625 0.421875 -5.140625 0.421875 -4.390625 C 0.421875 -3.15625 1.296875 -2.171875 2.40625 -2.171875 C 3.015625 -2.171875 3.421875 -2.59375 3.65625 -3.171875 Z M 2.421875 -2.40625 C 2.265625 -2.40625 1.796875 -2.40625 1.5 -3.03125 C 1.3125 -3.40625 1.3125 -3.890625 1.3125 -4.390625 C 1.3125 -4.921875 1.3125 -5.390625 1.53125 -5.765625 C 1.796875 -6.265625 2.171875 -6.390625 2.515625 -6.390625 C 2.984375 -6.390625 3.3125 -6.046875 3.484375 -5.609375 C 3.59375 -5.28125 3.640625 -4.65625 3.640625 -4.203125 C 3.640625 -3.375 3.296875 -2.40625 2.421875 -2.40625 Z M 2.421875 -2.40625 "
   id="path2821" />
      </symbol>
      <symbol
   overflow="visible"
   id="symbol9853">
        <path
   style="stroke:none;"
   d="M 2.890625 -3.515625 C 3.703125 -3.78125 4.28125 -4.46875 4.28125 -5.265625 C 4.28125 -6.078125 3.40625 -6.640625 2.453125 -6.640625 C 1.453125 -6.640625 0.6875 -6.046875 0.6875 -5.28125 C 0.6875 -4.953125 0.90625 -4.765625 1.203125 -4.765625 C 1.5 -4.765625 1.703125 -4.984375 1.703125 -5.28125 C 1.703125 -5.765625 1.234375 -5.765625 1.09375 -5.765625 C 1.390625 -6.265625 2.046875 -6.390625 2.40625 -6.390625 C 2.828125 -6.390625 3.375 -6.171875 3.375 -5.28125 C 3.375 -5.15625 3.34375 -4.578125 3.09375 -4.140625 C 2.796875 -3.65625 2.453125 -3.625 2.203125 -3.625 C 2.125 -3.609375 1.890625 -3.59375 1.8125 -3.59375 C 1.734375 -3.578125 1.671875 -3.5625 1.671875 -3.46875 C 1.671875 -3.359375 1.734375 -3.359375 1.90625 -3.359375 L 2.34375 -3.359375 C 3.15625 -3.359375 3.53125 -2.6875 3.53125 -1.703125 C 3.53125 -0.34375 2.84375 -0.0625 2.40625 -0.0625 C 1.96875 -0.0625 1.21875 -0.234375 0.875 -0.8125 C 1.21875 -0.765625 1.53125 -0.984375 1.53125 -1.359375 C 1.53125 -1.71875 1.265625 -1.921875 0.984375 -1.921875 C 0.734375 -1.921875 0.421875 -1.78125 0.421875 -1.34375 C 0.421875 -0.4375 1.34375 0.21875 2.4375 0.21875 C 3.65625 0.21875 4.5625 -0.6875 4.5625 -1.703125 C 4.5625 -2.515625 3.921875 -3.296875 2.890625 -3.515625 Z M 2.890625 -3.515625 "
   id="path385" />
      </symbol>
      <symbol
   overflow="visible"
   id="symbol8189">
        <path
   style="stroke:none;"
   d="M 4.75 -6.078125 C 4.828125 -6.1875 4.828125 -6.203125 4.828125 -6.421875 L 2.40625 -6.421875 C 1.203125 -6.421875 1.171875 -6.546875 1.140625 -6.734375 L 0.890625 -6.734375 L 0.5625 -4.6875 L 0.8125 -4.6875 C 0.84375 -4.84375 0.921875 -5.46875 1.0625 -5.59375 C 1.125 -5.65625 1.90625 -5.65625 2.03125 -5.65625 L 4.09375 -5.65625 C 3.984375 -5.5 3.203125 -4.40625 2.984375 -4.078125 C 2.078125 -2.734375 1.75 -1.34375 1.75 -0.328125 C 1.75 -0.234375 1.75 0.21875 2.21875 0.21875 C 2.671875 0.21875 2.671875 -0.234375 2.671875 -0.328125 L 2.671875 -0.84375 C 2.671875 -1.390625 2.703125 -1.9375 2.78125 -2.46875 C 2.828125 -2.703125 2.953125 -3.5625 3.40625 -4.171875 Z M 4.75 -6.078125 "
   id="path4554" />
      </symbol>
      <symbol
   overflow="visible"
   id="symbol8351">
        <path
   style="stroke:none;"
   d="M 1.265625 -0.765625 L 2.328125 -1.796875 C 3.875 -3.171875 4.46875 -3.703125 4.46875 -4.703125 C 4.46875 -5.84375 3.578125 -6.640625 2.359375 -6.640625 C 1.234375 -6.640625 0.5 -5.71875 0.5 -4.828125 C 0.5 -4.28125 1 -4.28125 1.03125 -4.28125 C 1.203125 -4.28125 1.546875 -4.390625 1.546875 -4.8125 C 1.546875 -5.0625 1.359375 -5.328125 1.015625 -5.328125 C 0.9375 -5.328125 0.921875 -5.328125 0.890625 -5.3125 C 1.109375 -5.96875 1.65625 -6.328125 2.234375 -6.328125 C 3.140625 -6.328125 3.5625 -5.515625 3.5625 -4.703125 C 3.5625 -3.90625 3.078125 -3.125 2.515625 -2.5 L 0.609375 -0.375 C 0.5 -0.265625 0.5 -0.234375 0.5 0 L 4.203125 0 L 4.46875 -1.734375 L 4.234375 -1.734375 C 4.171875 -1.4375 4.109375 -1 4 -0.84375 C 3.9375 -0.765625 3.28125 -0.765625 3.0625 -0.765625 Z M 1.265625 -0.765625 "
   id="path923" />
      </symbol>
      <symbol
   overflow="visible"
   id="symbol5079">
        <path
   style="stroke:none;"
   d="M 1.3125 -3.265625 L 1.3125 -3.515625 C 1.3125 -6.03125 2.546875 -6.390625 3.0625 -6.390625 C 3.296875 -6.390625 3.71875 -6.328125 3.9375 -5.984375 C 3.78125 -5.984375 3.390625 -5.984375 3.390625 -5.546875 C 3.390625 -5.234375 3.625 -5.078125 3.84375 -5.078125 C 4 -5.078125 4.3125 -5.171875 4.3125 -5.5625 C 4.3125 -6.15625 3.875 -6.640625 3.046875 -6.640625 C 1.765625 -6.640625 0.421875 -5.359375 0.421875 -3.15625 C 0.421875 -0.484375 1.578125 0.21875 2.5 0.21875 C 3.609375 0.21875 4.5625 -0.71875 4.5625 -2.03125 C 4.5625 -3.296875 3.671875 -4.25 2.5625 -4.25 C 1.890625 -4.25 1.515625 -3.75 1.3125 -3.265625 Z M 2.5 -0.0625 C 1.875 -0.0625 1.578125 -0.65625 1.515625 -0.8125 C 1.328125 -1.28125 1.328125 -2.078125 1.328125 -2.25 C 1.328125 -3.03125 1.65625 -4.03125 2.546875 -4.03125 C 2.71875 -4.03125 3.171875 -4.03125 3.484375 -3.40625 C 3.65625 -3.046875 3.65625 -2.53125 3.65625 -2.046875 C 3.65625 -1.5625 3.65625 -1.0625 3.484375 -0.703125 C 3.1875 -0.109375 2.734375 -0.0625 2.5 -0.0625 Z M 2.5 -0.0625 "
   id="path5207" />
      </symbol>
    </g>
  <g
   id="g7595">
      <symbol
   overflow="visible"
   id="symbol5459">
        <path
   style="stroke:none;"
   d=""
   id="path8908" />
      </symbol>
      <symbol
   overflow="visible"
   id="symbol197">
        <path
   style="stroke:none;"
   d="M 2.9375 -6.375 C 2.9375 -6.625 2.9375 -6.640625 2.703125 -6.640625 C 2.078125 -6 1.203125 -6 0.890625 -6 L 0.890625 -5.6875 C 1.09375 -5.6875 1.671875 -5.6875 2.1875 -5.953125 L 2.1875 -0.78125 C 2.1875 -0.421875 2.15625 -0.3125 1.265625 -0.3125 L 0.953125 -0.3125 L 0.953125 0 C 1.296875 -0.03125 2.15625 -0.03125 2.5625 -0.03125 C 2.953125 -0.03125 3.828125 -0.03125 4.171875 0 L 4.171875 -0.3125 L 3.859375 -0.3125 C 2.953125 -0.3125 2.9375 -0.421875 2.9375 -0.78125 Z M 2.9375 -6.375 "
   id="path8359" />
      </symbol>
      <symbol
   overflow="visible"
   id="symbol9187">
        <path
   style="stroke:none;"
   d="M 3.65625 -3.171875 L 3.65625 -2.84375 C 3.65625 -0.515625 2.625 -0.0625 2.046875 -0.0625 C 1.875 -0.0625 1.328125 -0.078125 1.0625 -0.421875 C 1.5 -0.421875 1.578125 -0.703125 1.578125 -0.875 C 1.578125 -1.1875 1.34375 -1.328125 1.125 -1.328125 C 0.96875 -1.328125 0.671875 -1.25 0.671875 -0.859375 C 0.671875 -0.1875 1.203125 0.21875 2.046875 0.21875 C 3.34375 0.21875 4.5625 -1.140625 4.5625 -3.28125 C 4.5625 -5.96875 3.40625 -6.640625 2.515625 -6.640625 C 1.96875 -6.640625 1.484375 -6.453125 1.0625 -6.015625 C 0.640625 -5.5625 0.421875 -5.140625 0.421875 -4.390625 C 0.421875 -3.15625 1.296875 -2.171875 2.40625 -2.171875 C 3.015625 -2.171875 3.421875 -2.59375 3.65625 -3.171875 Z M 2.421875 -2.40625 C 2.265625 -2.40625 1.796875 -2.40625 1.5 -3.03125 C 1.3125 -3.40625 1.3125 -3.890625 1.3125 -4.390625 C 1.3125 -4.921875 1.3125 -5.390625 1.53125 -5.765625 C 1.796875 -6.265625 2.171875 -6.390625 2.515625 -6.390625 C 2.984375 -6.390625 3.3125 -6.046875 3.484375 -5.609375 C 3.59375 -5.28125 3.640625 -4.65625 3.640625 -4.203125 C 3.640625 -3.375 3.296875 -2.40625 2.421875 -2.40625 Z M 2.421875 -2.40625 "
   id="path87" />
      </symbol>
      <symbol
   overflow="visible"
   id="symbol8012">
        <path
   style="stroke:none;"
   d="M 2.890625 -3.515625 C 3.703125 -3.78125 4.28125 -4.46875 4.28125 -5.265625 C 4.28125 -6.078125 3.40625 -6.640625 2.453125 -6.640625 C 1.453125 -6.640625 0.6875 -6.046875 0.6875 -5.28125 C 0.6875 -4.953125 0.90625 -4.765625 1.203125 -4.765625 C 1.5 -4.765625 1.703125 -4.984375 1.703125 -5.28125 C 1.703125 -5.765625 1.234375 -5.765625 1.09375 -5.765625 C 1.390625 -6.265625 2.046875 -6.390625 2.40625 -6.390625 C 2.828125 -6.390625 3.375 -6.171875 3.375 -5.28125 C 3.375 -5.15625 3.34375 -4.578125 3.09375 -4.140625 C 2.796875 -3.65625 2.453125 -3.625 2.203125 -3.625 C 2.125 -3.609375 1.890625 -3.59375 1.8125 -3.59375 C 1.734375 -3.578125 1.671875 -3.5625 1.671875 -3.46875 C 1.671875 -3.359375 1.734375 -3.359375 1.90625 -3.359375 L 2.34375 -3.359375 C 3.15625 -3.359375 3.53125 -2.6875 3.53125 -1.703125 C 3.53125 -0.34375 2.84375 -0.0625 2.40625 -0.0625 C 1.96875 -0.0625 1.21875 -0.234375 0.875 -0.8125 C 1.21875 -0.765625 1.53125 -0.984375 1.53125 -1.359375 C 1.53125 -1.71875 1.265625 -1.921875 0.984375 -1.921875 C 0.734375 -1.921875 0.421875 -1.78125 0.421875 -1.34375 C 0.421875 -0.4375 1.34375 0.21875 2.4375 0.21875 C 3.65625 0.21875 4.5625 -0.6875 4.5625 -1.703125 C 4.5625 -2.515625 3.921875 -3.296875 2.890625 -3.515625 Z M 2.890625 -3.515625 "
   id="path4971" />
      </symbol>
      <symbol
   overflow="visible"
   id="symbol2775">
        <path
   style="stroke:none;"
   d="M 4.75 -6.078125 C 4.828125 -6.1875 4.828125 -6.203125 4.828125 -6.421875 L 2.40625 -6.421875 C 1.203125 -6.421875 1.171875 -6.546875 1.140625 -6.734375 L 0.890625 -6.734375 L 0.5625 -4.6875 L 0.8125 -4.6875 C 0.84375 -4.84375 0.921875 -5.46875 1.0625 -5.59375 C 1.125 -5.65625 1.90625 -5.65625 2.03125 -5.65625 L 4.09375 -5.65625 C 3.984375 -5.5 3.203125 -4.40625 2.984375 -4.078125 C 2.078125 -2.734375 1.75 -1.34375 1.75 -0.328125 C 1.75 -0.234375 1.75 0.21875 2.21875 0.21875 C 2.671875 0.21875 2.671875 -0.234375 2.671875 -0.328125 L 2.671875 -0.84375 C 2.671875 -1.390625 2.703125 -1.9375 2.78125 -2.46875 C 2.828125 -2.703125 2.953125 -3.5625 3.40625 -4.171875 Z M 4.75 -6.078125 "
   id="path6828" />
      </symbol>
      <symbol
   overflow="visible"
   id="symbol4098">
        <path
   style="stroke:none;"
   d="M 1.265625 -0.765625 L 2.328125 -1.796875 C 3.875 -3.171875 4.46875 -3.703125 4.46875 -4.703125 C 4.46875 -5.84375 3.578125 -6.640625 2.359375 -6.640625 C 1.234375 -6.640625 0.5 -5.71875 0.5 -4.828125 C 0.5 -4.28125 1 -4.28125 1.03125 -4.28125 C 1.203125 -4.28125 1.546875 -4.390625 1.546875 -4.8125 C 1.546875 -5.0625 1.359375 -5.328125 1.015625 -5.328125 C 0.9375 -5.328125 0.921875 -5.328125 0.890625 -5.3125 C 1.109375 -5.96875 1.65625 -6.328125 2.234375 -6.328125 C 3.140625 -6.328125 3.5625 -5.515625 3.5625 -4.703125 C 3.5625 -3.90625 3.078125 -3.125 2.515625 -2.5 L 0.609375 -0.375 C 0.5 -0.265625 0.5 -0.234375 0.5 0 L 4.203125 0 L 4.46875 -1.734375 L 4.234375 -1.734375 C 4.171875 -1.4375 4.109375 -1 4 -0.84375 C 3.9375 -0.765625 3.28125 -0.765625 3.0625 -0.765625 Z M 1.265625 -0.765625 "
   id="path5259" />
      </symbol>
      <symbol
   overflow="visible"
   id="symbol4987">
        <path
   style="stroke:none;"
   d="M 1.3125 -3.265625 L 1.3125 -3.515625 C 1.3125 -6.03125 2.546875 -6.390625 3.0625 -6.390625 C 3.296875 -6.390625 3.71875 -6.328125 3.9375 -5.984375 C 3.78125 -5.984375 3.390625 -5.984375 3.390625 -5.546875 C 3.390625 -5.234375 3.625 -5.078125 3.84375 -5.078125 C 4 -5.078125 4.3125 -5.171875 4.3125 -5.5625 C 4.3125 -6.15625 3.875 -6.640625 3.046875 -6.640625 C 1.765625 -6.640625 0.421875 -5.359375 0.421875 -3.15625 C 0.421875 -0.484375 1.578125 0.21875 2.5 0.21875 C 3.609375 0.21875 4.5625 -0.71875 4.5625 -2.03125 C 4.5625 -3.296875 3.671875 -4.25 2.5625 -4.25 C 1.890625 -4.25 1.515625 -3.75 1.3125 -3.265625 Z M 2.5 -0.0625 C 1.875 -0.0625 1.578125 -0.65625 1.515625 -0.8125 C 1.328125 -1.28125 1.328125 -2.078125 1.328125 -2.25 C 1.328125 -3.03125 1.65625 -4.03125 2.546875 -4.03125 C 2.71875 -4.03125 3.171875 -4.03125 3.484375 -3.40625 C 3.65625 -3.046875 3.65625 -2.53125 3.65625 -2.046875 C 3.65625 -1.5625 3.65625 -1.0625 3.484375 -0.703125 C 3.1875 -0.109375 2.734375 -0.0625 2.5 -0.0625 Z M 2.5 -0.0625 "
   id="path2644" />
      </symbol>
    </g>
  <marker
   inkscape:isstock="true"
   style="overflow:visible"
   id="Arrow1Mstart-3"
   refX="0"
   refY="0"
   orient="auto"
   inkscape:stockid="Arrow1Mstart"><path
     transform="matrix(0.4,0,0,0.4,4,0)"
     style="fill:#000000;fill-opacity:1;fill-rule:evenodd;stroke:#000000;stroke-width:1pt;stroke-opacity:1"
     d="M 0,0 5,-5 -12.5,0 5,5 Z"
     id="path1368-6" /></marker><marker
   inkscape:isstock="true"
   style="overflow:visible"
   id="Arrow1Mend-7"
   refX="0"
   refY="0"
   orient="auto"
   inkscape:stockid="Arrow1Mend"><path
     transform="matrix(-0.4,0,0,-0.4,-4,0)"
     style="fill:#000000;fill-opacity:1;fill-rule:evenodd;stroke:#000000;stroke-width:1pt;stroke-opacity:1"
     d="M 0,0 5,-5 -12.5,0 5,5 Z"
     id="path1371-5" /></marker></defs><sodipodi:namedview
   inkscape:document-rotation="0"
   fit-margin-bottom="0"
   fit-margin-right="0"
   fit-margin-left="0"
   fit-margin-top="0"
   inkscape:current-layer="g12"
   inkscape:window-maximized="1"
   inkscape:window-y="27"
   inkscape:window-x="0"
   inkscape:cy="1242.7858"
   inkscape:cx="1537.2871"
   inkscape:zoom="0.3337544"
   showborder="false"
   borderlayer="true"
   showgrid="false"
   id="namedview16"
   inkscape:window-height="1053"
   inkscape:window-width="1920"
   inkscape:pageshadow="2"
   inkscape:pageopacity="0"
   guidetolerance="10"
   gridtolerance="10"
   objecttolerance="10"
   borderopacity="1"
   bordercolor="#666666"
   pagecolor="#ffffff" />
<metadata
   id="metadata2"> Svg Vector Icons : http://www.onlinewebfonts.com/icon <rdf:RDF><cc:Work
     rdf:about=""><dc:format>image/svg+xml</dc:format><dc:type
       rdf:resource="http://purl.org/dc/dcmitype/StillImage" /><dc:title /></cc:Work></rdf:RDF></metadata>
<g
   transform="translate(110.61222,158.66758)"
   id="g12"><path
     sodipodi:nodetypes="cc"
     inkscape:connector-curvature="0"
     id="path1023"
     d="M 194.91525,2211.8644 V 211.82031"
     style="fill:none;stroke:#006bff;stroke-width:5;stroke-linecap:butt;stroke-linejoin:miter;stroke-miterlimit:4;stroke-dasharray:none;stroke-opacity:1" /><path
     inkscape:connector-curvature="0"
     id="path1021"
     d="M 194.91525,2211.8644 1371.6615,173.68006"
     style="fill:none;stroke:#006bff;stroke-width:5;stroke-linecap:butt;stroke-linejoin:miter;stroke-miterlimit:4;stroke-dasharray:none;stroke-opacity:1" /><path
     style="stroke-width:0.15342414"
     d="m 2699.1523,195.68164 c -6.1566,0.39797 -12.4192,0.86742 -18.4062,1.1582 -40.964,2.02211 -124.2103,2.28077 -166.4922,0.50977 -85.9887,-3.67416 -189.717,-18.48383 -254.5469,-36.20703 -38.8979,-10.75816 -55.282,-13.16406 -88.0175,-13.16406 -27.9624,0 -47.7683,3.29227 -91.4395,15.57031 -54.6067,15.06671 -155.5921,29.24018 -238.8379,33.29101 -44.3479,2.27983 -127.5935,2.27983 -171.9414,0 -83.2459,-4.05083 -184.2311,-18.23091 -238.8379,-33.29101 -45.7015,-12.66131 -62.7631,-15.57031 -94.8574,-15.57031 -32.0588,0 -45.7369,2.15444 -90.7617,14.68359 -15.032,4.17639 -50.5103,11.64431 -78.4727,16.45508 -77.7958,13.54682 -154.2384,19.49414 -251.12694,19.49414 -96.88863,0 -178.78165,-6.8334 -259.32031,-21.52344 C 628.13139,171.90045 592.61644,164.17638 578.29688,160 c -14.99637,-4.17639 -32.77058,-8.61144 -40.92774,-9.74805 -17.098,-2.6565 -56.67186,-2.91375 -76.44141,-0.38281 -8.19279,1.01106 -31.38325,6.33023 -51.86523,11.77539 -83.24586,22.02515 -206.77769,36.84125 -307.08594,36.9668 -58.703111,0 -101.66270318,7.72423 -90.085935,16.32812 12.289184,8.98715 56.638135,11.6511 145.333985,8.61133 109.17783,-3.92528 183.55292,-11.39303 277.73437,-27.72851 l 62.80079,-11.01563 61.41015,11.01563 c 34.12475,6.07955 79.14888,12.91296 99.63086,15.31835 149.46501,16.5866 312.53713,18.10542 468.12892,4.5586 59.3799,-5.3196 89.409,-9.37039 157.623,-21.64844 l 51.1856,-9.23828 62.0879,11.01758 c 90.085,16.07776 167.2047,23.80259 272.9629,27.5957 64.8299,2.27983 104.4044,2.27983 169.2343,0 105.7582,-3.79972 182.8778,-11.51794 272.9629,-27.5957 l 62.086,-11.01758 51.1875,9.23828 c 68.2495,12.27805 98.2768,16.32884 157.6211,21.64844 98.2779,8.48493 195.8448,11.14244 290.7031,7.85156 8.5047,-0.30193 16.4532,-0.67 24.5683,-1.01758 z"
     id="path1821"
     inkscape:connector-curvature="0" /><g
     id="g928"
     transform="matrix(1.4947078,0,0,1.4947078,831.28912,-727.4039)"><path
       id="path903"
       style="fill:#231f20"
       d="m 844.627,562.68 1.84,-18.41 c 0.37,-3.72 -2.52,-6.97 -6.26,-7.05 l -20.3,-0.4 v -13.04 c 0,-2.709 -0.24,-5.368 -0.7,-7.946 h 2.704 c 3.314,0 6,-2.687 6,-6 v -4.667 c 0,-3.314 -2.686,-6 -6,-6 h -402 c -3.314,0 -6,2.686 -6,6 v 4.667 c 0,3.313 2.686,6 6,6 h 2.695 c -0.46,2.579 -0.7,5.237 -0.7,7.946 v 5.16 l -10.82,-0.21 c -1.6,-0.03 -3.13,-0.65 -4.28,-1.75 l -8.57,-8.12 -30.75,-29.12 -13.52,-12.81 c -1.19,-1.13 -2.77,-1.76 -4.41,-1.76 h -53.24 -136.4 c -4.2,0 -7.27,3.97 -6.2,8.03 l 5.53,21.15 c 0.22,-0.02 0.44,-0.03 0.67,-0.03 h 136.89 52.75 c 1.64,0 3.22,0.63 4.41,1.76 l 3.96,3.75 40.01,37.9 8.87,8.4 c 1.15,1.09 2.68,1.72 4.28,1.75 l 10.82,0.21 89.99,1.78 12.69,0.26 89.88,1.77 12.94,0.26 88.92,1.76 14.7,0.29 85.76,1.7 23.42,0.46 h 0.04 c 2.23,0.06 4.16,-1.48 4.381,-3.69 z m -320.041,-38.9 v 7.2 l -12.69,-0.26 v -6.94 c 0,-2.709 -0.24,-5.368 -0.699,-7.946 h 14.089 c -0.46,2.578 -0.7,5.237 -0.7,7.946 z m 102.67,0 v 9.23 l -12.69,-0.25 v -8.98 c 0,-2.709 -0.24,-5.368 -0.7,-7.946 h 14.089 c -0.459,2.578 -0.699,5.237 -0.699,7.946 z m 102.67,0 v 11.26 l -12.69,-0.25 v -11.01 c 0,-2.709 -0.24,-5.368 -0.699,-7.946 h 14.089 c -0.46,2.578 -0.7,5.237 -0.7,7.946 z"
       inkscape:connector-curvature="0" /><path
       id="path905"
       style="fill:#231f20;stroke-width:1.03428805"
       d="M 391.40049,570.08668 375.42074,554.9447 339.92398,521.32 h -82.50515 -11.02551 -24.14029 -11.02551 -24.14028 -35.84842 l 20.65473,95.55787 c 0.76537,3.52692 3.40287,6.00685 6.41259,5.98853 l 668.79657,-4.07174 c 3.41309,-0.0208 5.70401,0.94819 6.03498,-3.15794 l 1.48524,-18.06901 c 0.32683,-3.9696 0.49025,-7.9516 0.49025,-11.93568 l -447.53642,-8.91556 c -6.0299,-0.11378 -11.78054,-2.47195 -16.17627,-6.62979 z"
       inkscape:connector-curvature="0"
       sodipodi:nodetypes="ccccccccccssccccc" /><path
       id="path907"
       style="fill:#231f20"
       d="m 214.906,441.5 h -11.34 c -3.31,0 -6,3.05 -6,6.83 v 9.84 h 23.34 v -9.84 c 0,-3.78 -2.69,-6.83 -6,-6.83 z"
       inkscape:connector-curvature="0" /><path
       id="path909"
       style="fill:#231f20"
       d="m 249.736,380.5 h -13 c -2.85,0 -5.17,2.31 -5.17,5.17 v 72.5 h 23.34 v -72.5 c 0,-2.86 -2.32,-5.17 -5.17,-5.17 z"
       inkscape:connector-curvature="0" /><path
       id="path911"
       style="fill:#231f20"
       d="m 359.156,380.5 h -54.5 c -4.61,0 -8.34,3.73 -8.34,8.33 v 35.67 h -22.41 c -4.61,0 -8.34,3.73 -8.34,8.33 v 25.34 h 30.75 53.24 c 6.03,0 11.75,2.29 16.12,6.43 l 1.81,1.72 11.69,11.08 19.06,18.05 v -62.62 c 0,-4.6 -3.73,-8.33 -8.33,-8.33 h -22.42 v -35.67 c 0,-4.6 -3.73,-8.33 -8.33,-8.33 z"
       inkscape:connector-curvature="0" /><path
       id="path913"
       style="fill:#231f20"
       d="m 440.806,487.12 h 17.77 16.66 17.77 c -5.21,-3.72 -11.25,-6.35 -17.77,-7.57 v -21.383 h 86.01 v 21.383 c -6.53,1.23 -12.56,3.86 -17.77,7.57 h 17.77 16.66 17.77 c -5.21,-3.71 -11.24,-6.34 -17.77,-7.57 v -21.383 h 86.01 v 21.383 c -6.52,1.22 -12.56,3.85 -17.77,7.57 h 17.77 16.66 17.77 c -5.21,-3.72 -11.25,-6.35 -17.77,-7.57 v -21.383 h 86.01 v 21.383 c -6.53,1.23 -12.56,3.86 -17.77,7.57 h 17.77 16.66 17.77 c -5.21,-3.71 -11.24,-6.34 -17.77,-7.57 v -26.469 c 0,-0.014 0.004,-0.026 0.004,-0.041 v -6.414 c 0,-1.416 -0.574,-2.698 -1.503,-3.626 -0.926,-0.928 -2.206,-1.5 -3.621,-1.5 h -0.002 -6.418 -96.25 -6.42 -96.25 -6.42 -96.25 -3.211 -3.209 c -2.83,0 -5.12,2.29 -5.12,5.13 v 3.108 c 0,0.032 -0.005,0.064 -0.005,0.096 0,0.032 0.005,0.063 0.005,0.095 v 29.621 c -6.53,1.22 -12.56,3.85 -17.77,7.57 z"
       inkscape:connector-curvature="0" /></g><path
     sodipodi:nodetypes="ccccccccc"
     inkscape:connector-curvature="0"
     d="m 1711.7569,1556.2266 c -11.4099,-27.3824 -55.7446,-138.1031 -10.6803,-330.968 45.0646,-192.8653 -11.0273,-341.71392 -11.0273,-341.71392 m 21.7076,672.68192 c 7.43,16.5203 44.3448,142.1741 -16.2339,330.7422 -60.5792,188.5681 -15.702,331.9466 -15.702,331.9466 m -4.2002,-2008.24796 c 7.6619,14.01334 54.2474,138.69796 7.099,331.06431 -47.1487,192.36605 7.3295,341.81293 7.3295,341.81293"
     style="fill:none;stroke:#000000;stroke-width:13.17120552;stroke-linecap:butt;stroke-linejoin:miter;stroke-miterlimit:4;stroke-dasharray:none;stroke-opacity:1"
     id="path966-5" /><path
     sodipodi:nodetypes="csccccccc"
     inkscape:connector-curvature="0"
     d="m 1736.7437,1556.6011 c -11.4099,-27.3825 -55.7446,-138.1032 -10.6803,-330.968 45.0646,-192.8652 -11.0273,-341.71389 -11.0273,-341.71389 m 21.7076,672.68199 c 7.43,16.5201 44.3449,142.1741 -16.2339,330.7422 -60.5792,188.568 -13.0538,329.2983 -13.0538,329.2983 m -6.8484,-2005.59974 c 7.6619,14.01334 54.2474,138.69795 7.099,331.06431 -47.1487,192.36605 7.3295,341.81294 7.3295,341.81294"
     style="fill:none;stroke:#000000;stroke-width:13.17120552;stroke-linecap:butt;stroke-linejoin:miter;stroke-miterlimit:4;stroke-dasharray:none;stroke-opacity:1"
     id="path966-5-3" /><path
     inkscape:connector-curvature="0"
     id="path1019"
     d="M -38.135592,2216.1017 H 2697.3961"
     style="fill:none;stroke:#000000;stroke-width:8.70987892;stroke-linecap:butt;stroke-linejoin:miter;stroke-miterlimit:4;stroke-dasharray:none;stroke-opacity:1" /><path
     sodipodi:nodetypes="cc"
     inkscape:connector-curvature="0"
     id="path1025"
     d="m 194.91525,1771.7886 243.94142,0"
     style="fill:none;stroke:#006bff;stroke-width:5;stroke-linecap:butt;stroke-linejoin:miter;stroke-miterlimit:4;stroke-dasharray:none;stroke-opacity:1;marker-end:url(#marker1317)" /><path
     sodipodi:nodetypes="cc"
     inkscape:connector-curvature="0"
     id="path1027"
     d="m 194.91525,1375.2017 472.24092,0"
     style="fill:none;stroke:#006bff;stroke-width:5;stroke-linecap:butt;stroke-linejoin:miter;stroke-miterlimit:4;stroke-dasharray:none;stroke-opacity:1;marker-end:url(#Arrow2Lend)" /><path
     sodipodi:nodetypes="cc"
     inkscape:connector-curvature="0"
     id="path1029"
     d="m 194.75399,978.61485 703.187,0"
     style="fill:none;stroke:#006bff;stroke-width:5;stroke-linecap:butt;stroke-linejoin:miter;stroke-miterlimit:4;stroke-dasharray:none;stroke-opacity:1;marker-end:url(#marker1351)" /><path
     sodipodi:nodetypes="cc"
     inkscape:connector-curvature="0"
     id="path1031"
     d="m 193.25588,582.02798 931.81652,-10e-6"
     style="fill:none;stroke:#006bff;stroke-width:5;stroke-linecap:butt;stroke-linejoin:miter;stroke-miterlimit:4;stroke-dasharray:none;stroke-opacity:1;marker-end:url(#marker1391)" /><g
     transform="matrix(11.973489,0,0,11.973489,-1899.2584,-420.10616)"
     ns1:version="0.11.0"
     ns1:texconverter="pdflatex"
     ns1:pdfconverter="pdf2svg"
     ns1:text="$U_\\infty$"
     ns1:preamble="/home/b-fg/.config/inkscape/extensions/textext/default_packages.tex"
     ns1:scale="3.8095394222"
     ns1:alignment="middle center"
     inkscapeversion="0.92.5"
     ns1:jacobian_sqrt="5.079386"
     id="g956"><g
   id="surface1">
<g
   style="fill:#000000;fill-opacity:1"
   id="g949">
  <path
   inkscape:connector-curvature="0"
   style="stroke:none;stroke-width:0"
   d="M 6.328125,-5.765625 C 6.4375,-6.171875 6.609375,-6.46875 7.40625,-6.5 c 0.046875,0 0.171875,-0.015625 0.171875,-0.203125 0,0 0,-0.109375 -0.125,-0.109375 -0.328125,0 -0.6875,0.03125 -1.015625,0.03125 -0.34375,0 -0.71875,-0.03125 -1.046875,-0.03125 -0.0625,0 -0.171875,0 -0.171875,0.203125 C 5.21875,-6.5 5.3125,-6.5 5.390625,-6.5 c 0.578125,0.015625 0.6875,0.21875 0.6875,0.4375 0,0.03125 -0.03125,0.1875 -0.03125,0.203125 l -0.90625,3.5625 C 4.8125,-0.953125 3.65625,-0.09375 2.65625,-0.09375 c -0.671875,0 -1.203125,-0.4375 -1.203125,-1.296875 0,-0.015625 0,-0.328125 0.109375,-0.765625 L 2.515625,-6.046875 C 2.609375,-6.40625 2.625,-6.5 3.359375,-6.5 c 0.265625,0 0.34375,0 0.34375,-0.203125 0,-0.109375 -0.109375,-0.109375 -0.140625,-0.109375 -0.28125,0 -1,0.03125 -1.28125,0.03125 -0.28125,0 -1,-0.03125 -1.28125,-0.03125 -0.078125,0 -0.1875,0 -0.1875,0.203125 C 0.8125,-6.5 0.890625,-6.5 1.09375,-6.5 c 0.015625,0 0.203125,0 0.375,0.015625 0.171875,0.03125 0.265625,0.03125 0.265625,0.171875 0,0.046875 -0.109375,0.46875 -0.171875,0.703125 l -0.21875,0.875 C 1.25,-4.34375 0.78125,-2.46875 0.734375,-2.265625 0.671875,-2 0.671875,-1.84375 0.671875,-1.6875 c 0,1.203125 0.90625,1.90625 1.953125,1.90625 1.25,0 2.484375,-1.125 2.8125,-2.4375 z m 0,0"
   transform="translate(148.712,134.765)"
   id="path947" />
</g>
<g
   style="fill:#000000;fill-opacity:1"
   id="g953">
  <path
   inkscape:connector-curvature="0"
   style="stroke:none;stroke-width:0"
   d="m 4.03125,-1.90625 c -0.375,-0.4375 -0.484375,-0.546875 -0.75,-0.734375 -0.421875,-0.3125 -0.875,-0.4375 -1.25,-0.4375 -0.875,0 -1.5,0.75 -1.5,1.578125 0,0.8125 0.609375,1.5625 1.46875,1.5625 0.96875,0 1.65625,-0.78125 1.90625,-1.15625 0.359375,0.4375 0.484375,0.546875 0.734375,0.734375 0.4375,0.3125 0.875,0.421875 1.265625,0.421875 0.859375,0 1.484375,-0.734375 1.484375,-1.5625 0,-0.828125 -0.59375,-1.578125 -1.46875,-1.578125 -0.96875,0 -1.640625,0.796875 -1.890625,1.171875 z m 0.21875,0.25 c 0.28125,-0.453125 0.890625,-1.15625 1.734375,-1.15625 0.71875,0 1.21875,0.640625 1.21875,1.3125 0,0.65625 -0.546875,1.1875 -1.1875,1.1875 -0.65625,0 -1.09375,-0.53125 -1.765625,-1.34375 z M 3.671875,-1.359375 C 3.40625,-0.90625 2.796875,-0.1875 1.9375,-0.1875 c -0.71875,0 -1.203125,-0.640625 -1.203125,-1.3125 0,-0.671875 0.546875,-1.1875 1.1875,-1.1875 0.640625,0 1.09375,0.53125 1.75,1.328125 z m 0,0"
   transform="translate(155.515,136.259)"
   id="path951" />
</g>
</g>
</g><rect
     style="fill:#ffffff;fill-opacity:1;stroke:none;stroke-width:3.55745;stroke-linecap:round;stroke-linejoin:round;stroke-dasharray:21.3447, 21.3447;paint-order:fill markers stroke"
     id="rect1360"
     width="40.319832"
     height="122.38059"
     x="1892.7693"
     y="1093.0623" /><g
     inkscape:label=""
     transform="matrix(12.304486,0,0,12.304486,828.39721,182.89077)"
     id="g935"
     style="fill:#000300;fill-opacity:1"><g
       id="g2732"
       style="fill:#000300;fill-opacity:1"><g
         id="g5168"
         style="fill:#000300;fill-opacity:1"><use
           height="100%"
           width="100%"
           id="use6280"
           y="81.962997"
           x="91.925003"
           xlink:href="#symbol4143"
           style="fill:#000300;fill-opacity:1" /></g><g
         id="g7484"
         style="fill:#000300;fill-opacity:1"><use
           height="100%"
           width="100%"
           id="use2104"
           y="83.457001"
           x="98.705002"
           xlink:href="#symbol6475"
           style="fill:#000300;fill-opacity:1" /></g></g></g><path
     sodipodi:nodetypes="cccc"
     style="fill:none;stroke:#000000;stroke-width:5;stroke-linecap:butt;stroke-linejoin:miter;stroke-miterlimit:4;stroke-dasharray:30, 30;stroke-dashoffset:0;stroke-opacity:1;marker-start:url(#Arrow1Mstart-3);marker-end:url(#Arrow1Mend-7)"
     d="M 1912.6482,2215.1957 V 1185.5816 1072.628 216.08815"
     id="path885-3" /></g>
</svg>
